<?xml version="1.0" encoding="iso-8859-1"?>
<!-- Generator: Adobe Illustrator 19.0.0, SVG Export Plug-In . SVG Version: 6.00 Build 0)  -->
<svg version="1.1" id="Layer_1" xmlns="http://www.w3.org/2000/svg" xmlns:xlink="http://www.w3.org/1999/xlink" x="0px" y="0px"
	 viewBox="0 0 505 505" style="enable-background:new 0 0 505 505;" xml:space="preserve">
<circle style="fill:#FFD05B;" cx="252.5" cy="252.5" r="252.5"/>
<path style="fill:#324A5E;" d="M392.4,396.6H112.6c-2.3,0-4.1-1.8-4.1-4.1V112.6c0-2.3,1.8-4.1,4.1-4.1h279.9c2.3,0,4.1,1.8,4.1,4.1
	v279.9C396.6,394.7,394.7,396.6,392.4,396.6z"/>
<rect x="132.1" y="132.1" style="fill:#FFFFFF;" width="240.8" height="240.8"/>
<path style="fill:#E6E9EE;" d="M372.9,182.2v-3.9h-46.2v-46.2h-3.9v46.2h-44.3v-46.2h-3.9v46.2h-44.2v-46.2h-3.9v46.2h-44.2v-46.2
	h-3.9v46.2h-46.2v3.9h46.2v44.3h-46.2v3.9h46.2v44.2h-46.2v3.9h46.2v44.2h-46.2v3.9h46.2v46.2h3.9v-46.2h44.2v46.2h3.9v-46.2h44.2
	v46.2h3.9v-46.2h44.2v46.2h3.9v-46.2h46.2v-3.9h-46.2v-44.2h46.2v-3.9h-46.2v-44.2h46.2v-3.9h-46.2v-44.2h46.3V182.2z M226.5,322.8
	h-44.2v-44.3h44.2V322.8z M226.5,274.6h-44.2v-44.2h44.2V274.6z M226.5,226.5h-44.2v-44.2h44.2V226.5z M274.6,322.8h-44.2v-44.3
	h44.2V322.8z M274.6,274.6h-44.2v-44.2h44.2V274.6z M274.6,226.5h-44.2v-44.2h44.2V226.5z M322.8,322.8h-44.3v-44.3h44.2v44.3H322.8
	z M322.8,274.6h-44.3v-44.2h44.2v44.2H322.8z M322.8,226.5h-44.3v-44.2h44.2v44.2H322.8z"/>
<g>
	<polygon style="fill:#FF7058;" points="318.1,220.7 228.8,312.9 184.9,217.3 131.6,266.1 131.6,287.5 179.6,243.5 224.1,340.5 
		329.4,231.7 	"/>
	<polygon style="fill:#FF7058;" points="348,199.2 295.4,211.7 335.5,251.8 	"/>
</g>
<g>
</g>
<g>
</g>
<g>
</g>
<g>
</g>
<g>
</g>
<g>
</g>
<g>
</g>
<g>
</g>
<g>
</g>
<g>
</g>
<g>
</g>
<g>
</g>
<g>
</g>
<g>
</g>
<g>
</g>
</svg>
