<?xml version="1.0" encoding="iso-8859-1"?>
<!-- Generator: Adobe Illustrator 19.0.0, SVG Export Plug-In . SVG Version: 6.00 Build 0)  -->
<svg version="1.1" id="Layer_1" xmlns="http://www.w3.org/2000/svg" xmlns:xlink="http://www.w3.org/1999/xlink" x="0px" y="0px"
	 viewBox="0 0 512 512" style="enable-background:new 0 0 512 512;" xml:space="preserve">
<circle style="fill:#E16B5A;" cx="256" cy="256" r="256"/>
<path style="fill:#CCCCCC;" d="M100,396c-15.436,0-28-12.564-28-28V140c0-15.436,8.564-24,24-24h316c15.436,0,28,12.564,28,28v224
	c0,15.436-12.564,28-28,28H100z"/>
<circle style="fill:#CC584C;" cx="95.812" cy="140" r="8"/>
<circle style="fill:#FFD464;" cx="119.812" cy="140" r="8"/>
<circle style="fill:#198058;" cx="143.812" cy="140" r="8"/>
<path style="fill:#F5F5F5;" d="M403.812,144c0,2.2-1.8,4-4,4h-232c-2.2,0-4-1.8-4-4v-8c0-2.2,1.8-4,4-4h232c2.2,0,4,1.8,4,4V144z"/>
<path style="fill:#263740;" d="M424,372c0,4.4-3.6,8-8,8H96c-4.4,0-8-3.6-8-8V172c0-4.4,3.6-8,8-8h320c4.4,0,8,3.6,8,8V372z"/>
<g>
	<rect x="99.812" y="180" style="fill:#E16B5A;" width="40" height="4"/>
	<rect x="199.812" y="216" style="fill:#E16B5A;" width="40" height="4"/>
	<rect x="247.812" y="216" style="fill:#E16B5A;" width="16" height="4"/>
</g>
<g>
	<rect x="147.812" y="180" style="fill:#E6E6E6;" width="16" height="4"/>
	<rect x="99.812" y="192" style="fill:#E6E6E6;" width="16" height="4"/>
	<rect x="123.812" y="192" style="fill:#E6E6E6;" width="16" height="4"/>
	<rect x="99.812" y="204" style="fill:#E6E6E6;" width="16" height="4"/>
	<rect x="123.812" y="204" style="fill:#E6E6E6;" width="16" height="4"/>
	<rect x="247.812" y="204" style="fill:#E6E6E6;" width="16" height="4"/>
	<rect x="271.812" y="204" style="fill:#E6E6E6;" width="16" height="4"/>
	<rect x="147.812" y="192" style="fill:#E6E6E6;" width="16" height="4"/>
	<rect x="327.812" y="192" style="fill:#E6E6E6;" width="16" height="4"/>
	<rect x="351.8" y="192" style="fill:#E6E6E6;" width="16" height="4"/>
	<rect x="375.8" y="192" style="fill:#E6E6E6;" width="16" height="4"/>
	<rect x="171.812" y="180" style="fill:#E6E6E6;" width="68" height="4"/>
	<rect x="171.812" y="192" style="fill:#E6E6E6;" width="68" height="4"/>
	<rect x="99.812" y="216" style="fill:#E6E6E6;" width="16" height="4"/>
	<rect x="123.812" y="216" style="fill:#E6E6E6;" width="68" height="4"/>
	<rect x="147.812" y="204" style="fill:#E6E6E6;" width="68" height="4"/>
</g>
<rect x="99.812" y="264" style="fill:#E16B5A;" width="40" height="4"/>
<g>
	<rect x="147.812" y="264" style="fill:#E6E6E6;" width="16" height="4"/>
	<rect x="99.812" y="276" style="fill:#E6E6E6;" width="16" height="4"/>
	<rect x="123.812" y="276" style="fill:#E6E6E6;" width="16" height="4"/>
	<rect x="99.812" y="288" style="fill:#E6E6E6;" width="16" height="4"/>
	<rect x="123.812" y="288" style="fill:#E6E6E6;" width="16" height="4"/>
	<rect x="147.812" y="276" style="fill:#E6E6E6;" width="16" height="4"/>
	<rect x="171.812" y="264" style="fill:#E6E6E6;" width="68" height="4"/>
	<rect x="171.812" y="276" style="fill:#E6E6E6;" width="68" height="4"/>
	<rect x="247.812" y="276" style="fill:#E6E6E6;" width="68" height="4"/>
	<rect x="323.812" y="276" style="fill:#E6E6E6;" width="68" height="4"/>
	<rect x="147.812" y="288" style="fill:#E6E6E6;" width="68" height="4"/>
	<rect x="295.812" y="204" style="fill:#E6E6E6;" width="68" height="4"/>
	<rect x="271.812" y="216" style="fill:#E6E6E6;" width="16" height="4"/>
	<rect x="295.812" y="216" style="fill:#E6E6E6;" width="68" height="4"/>
</g>
<rect x="247.812" y="264" style="fill:#E16B5A;" width="16" height="4"/>
<g>
	<rect x="271.812" y="264" style="fill:#E6E6E6;" width="16" height="4"/>
	<rect x="295.812" y="264" style="fill:#E6E6E6;" width="68" height="4"/>
	<rect x="247.812" y="192" style="fill:#E6E6E6;" width="68" height="4"/>
</g>
<rect x="99.812" y="252" style="fill:#E16B5A;" width="16" height="4"/>
<g>
	<rect x="99.812" y="240" style="fill:#E6E6E6;" width="16" height="4"/>
	<rect x="123.812" y="240" style="fill:#E6E6E6;" width="16" height="4"/>
	<rect x="179.812" y="228" style="fill:#E6E6E6;" width="16" height="4"/>
	<rect x="203.812" y="228" style="fill:#E6E6E6;" width="16" height="4"/>
	<rect x="227.812" y="228" style="fill:#E6E6E6;" width="16" height="4"/>
	<rect x="147.812" y="240" style="fill:#E6E6E6;" width="68" height="4"/>
	<rect x="123.812" y="252" style="fill:#E6E6E6;" width="16" height="4"/>
	<rect x="147.812" y="252" style="fill:#E6E6E6;" width="68" height="4"/>
	<rect x="99.812" y="228" style="fill:#E6E6E6;" width="68" height="4"/>
</g>
<rect x="247.812" y="252" style="fill:#E16B5A;" width="16" height="4"/>
<g>
	<rect x="247.812" y="240" style="fill:#E6E6E6;" width="16" height="4"/>
	<rect x="271.812" y="240" style="fill:#E6E6E6;" width="16" height="4"/>
	<rect x="327.812" y="228" style="fill:#E6E6E6;" width="16" height="4"/>
	<rect x="351.8" y="228" style="fill:#E6E6E6;" width="16" height="4"/>
	<rect x="375.8" y="228" style="fill:#E6E6E6;" width="16" height="4"/>
	<rect x="295.812" y="240" style="fill:#E6E6E6;" width="68" height="4"/>
	<rect x="271.812" y="252" style="fill:#E6E6E6;" width="16" height="4"/>
	<rect x="295.812" y="252" style="fill:#E6E6E6;" width="68" height="4"/>
	<rect x="247.812" y="228" style="fill:#E6E6E6;" width="68" height="4"/>
</g>
<g>
</g>
<g>
</g>
<g>
</g>
<g>
</g>
<g>
</g>
<g>
</g>
<g>
</g>
<g>
</g>
<g>
</g>
<g>
</g>
<g>
</g>
<g>
</g>
<g>
</g>
<g>
</g>
<g>
</g>
</svg>
