<svg xmlns="http://www.w3.org/2000/svg" viewBox="0 0 1352.05 710"><defs><style>.cls-1{fill:#eac686;}.cls-2{fill:#edbd5d;}.cls-3{fill:#f2b630;}.cls-4{fill:#f4a925;}</style></defs><title>KSEA LOGO BEAR</title><g id="레이어_2" data-name="레이어 2"><path class="cls-1" d="M1416.3,434.06c1.51,22.39-11.45,32.09-26.24,38a73.22,73.22,0,0,1-24.69,4.81,29,29,0,0,1-20.81-7.34,33.33,33.33,0,0,0-11.91-6.67c-6-2-12.11-3.88-18.22-5.62-6.79-1.93-13.51-.19-20.21.77-2.65.38-2.26,2.21-1.39,4a52.56,52.56,0,0,0,9.18,13c9.59,10.34,20.49,19.18,31.84,27.5,5.49,4,5.67,13.94.51,18.49-2.44,2.15-4.75,4.44-7.09,6.69-6.42,6.16-14,8.48-22.79,7.26a73,73,0,0,1-28.93-10.51c-15.39-9.56-32.55-15.43-49.08-22.65-25.19-11-50.21-22.43-75.32-33.65a294.15,294.15,0,0,0-85.26-23.22c-8.19-1-16.37-2.48-24.71-1.18-5.84.92-6.87,2.37-5,8.29,3,9.62,6.31,19.11,8.92,28.82,8.16,30.32,19.68,59.51,29.59,89.23,4.55,13.68,14.72,22.91,25.32,31.85,21.81,18.42,41.87,38.35,55,64.24,2.65,5.23,7.49,8.24,12.46,11a112.12,112.12,0,0,0,28,11.11c18.61,4.57,35.45,13.07,52,22.36,9,5.08,18,10.22,26.61,16a36.49,36.49,0,0,1,4.88,3.81c1.22,1.17,3.1,2.41,2.07,4.43-.88,1.73-2.88,1.84-4.68,2-3.33.27-6.38-1.11-9.57-1.63s-6.2-1-7.08,3.61c-.52,2.81-3.21,3.33-5.67,3.1a40.91,40.91,0,0,1-5.57-1.41c-1.8-.45-4-2-5.36-.29s.75,3.42,1.71,5,2.07,2.91,2.84,4.49c1,2.09,1.26,4.39-.32,6.28-1.43,1.73-3.35.58-5,.19a42.91,42.91,0,0,1-10.32-4c-6.32-3.37-13-3.72-19.84-2.39a63.27,63.27,0,0,1-12.77,1.33c-21-.22-41.95,0-62.87,2.24-9.88,1.08-19.77-.82-29.37-3.48-39-10.81-73.23-30.32-103.46-57.2,3.26-109.32,5.67-211.61,5.67-211.61-.12-1.08-.23-2.18-.33-3.28s-.22-2.25-.32-3.36c-4.29-50.63,4.9-99.93,4.9-99.93,2.46,1.07,4.91,2.17,7.37,3.26,19.31,8.68,42.55,17.93,60.39,6.49A37.06,37.06,0,0,0,1095,367.48c21.3-49.7-38.22-64.73-73.36-78.79,2.14-26.75,20-76,20-76h0c15,10,30.89,18.07,45.6,16,10.66-1.48,21.47-4.12,30.25-10.36,35.42-25.21.37-68.73-27.56-81.31,11.67,5.2,23.88,8.68,36.15,12,18.66,5.09,35.61,13.36,50.33,26.17,10.78,9.38,11,9.16,23,2.18,14.65-8.49,26.54-4.92,34,10.23,2.48,5,4.84,10.12,8.46,14.51,5.56,6.75,11.85,8.75,20.1,5.88,3.62-1.26,7-3.1,10.63-4.47,17.39-6.68,31.1,1.92,32.4,20.51.4,5.49,1.3,10.86,2.06,16.27a14.78,14.78,0,0,0,6.23,10.36c19.34,13.69,31.88,32.59,41.5,53.77,2.24,4.94,2.32,10,1.34,15.21-2.58,13.65-3.47,27.23.23,40.87,4.55,16.82,14.16,30.44,26.6,42.21a142.59,142.59,0,0,0,26.65,19.78C1413.92,425,1415.93,428.6,1416.3,434.06Zm-171.17-95.67a250.08,250.08,0,0,0-1.52-54.91c-2-14.44-6.27-30.21-18.55-38.09-8.52-5.46-19.23-6-29.36-5.67-8.55.27-17.27,1.06-25.3,3.84a46.68,46.68,0,0,0-5.56,2.33c-18.59,9.26-28.19,30.45-31.78,50.91-4.76,27.11-7.27,50.7,20.69,61.33A107.46,107.46,0,0,0,1228,359c6.08-2.22,12.39-5.42,15.16-11.26C1244.53,344.84,1244.87,341.57,1245.13,338.39Z" transform="translate(-64.38 -46.88)"/><path class="cls-2" d="M1089.86,137c27.93,12.58,63,56.09,27.56,81.31-8.78,6.24-19.59,8.88-30.25,10.36-14.71,2-30.6-6-45.6-16-12.92-8.6-25.19-18.66-35.45-24.94-28.48-17.44-59.45-33.53-93.47-35.21L902.2,152a175.57,175.57,0,0,0-33.39-40.43C844,89.47,810.54,73.39,777.17,70.1q14-6.21,27.87-12.48c10.14-4.54,20.82-6.71,31.77-7.6,20.62-1.7,41.24-3.84,62-2.91,27.79,1.26,54.93,6,80.81,16.64,10.52,4.32,21.43,7.82,31.29,13.62,13.22,7.76,24.38,18.18,35.63,28.45C1059.72,117.92,1073.24,129.59,1089.86,137Z" transform="translate(-64.38 -46.88)"/><path class="cls-2" d="M1021.6,288.69c35.14,14.06,94.67,29.1,73.36,78.79a37.06,37.06,0,0,1-13.64,16.72c-17.83,11.44-41.07,2.19-60.39-6.49-2.46-1.1-4.91-2.19-7.37-3.26a844.38,844.38,0,0,0-82.64-31.15c-27.12-8.63-63.42-26-91.24-13.84-24.57-19.79-54.58-33.1-85.78-39.1-7.75-1.5-15.54-2.78-23.1-5.06C725.15,237.54,761.38,165.24,762,164c30.37,15.19,46.82,44.51,55.39,78.36,2.72,10.74,5.91,21.66,12.55,30.52,17.3,23.06,51.69,14.2,70.28-2.69a69,69,0,0,0,20.11-33.94l1.73.44c29.58,17,59.58,33.36,90.37,48.08C1015.22,286.05,1018.31,287.36,1021.6,288.69Z" transform="translate(-64.38 -46.88)"/><path class="cls-2" d="M1009.33,481s-2.4,102.29-5.67,211.61c-8.24-7.34-17.76-13.18-26-20.71-14.66-13.47-27.31-28.67-39.29-44.46S915.18,595.23,900.21,582c-10.86-9.56-21.34-19.56-32.32-29-9.6-8.23-16.2-8-26.16-.3,2.58-2.21,76.82-66.42,49.29-150.87,0,0,72.58,48.44,117.53,79.15Z" transform="translate(-64.38 -46.88)"/><path class="cls-3" d="M762,164a96.76,96.76,0,0,0-18.11-6.86c-22.88-6.21-50.25-3.94-71.83,6.17-11.84,5.54-22.35,15.45-25.32,28.18-5.68,24.32,10.74,51.21,29.1,65.56a169.57,169.57,0,0,0,55,28.3c7.56,2.28,15.35,3.57,23.1,5.06,31.19,6,61.21,19.3,85.78,39.1a159.83,159.83,0,0,1,45.24,57A137.51,137.51,0,0,1,891,401.89c27.53,84.45-46.71,148.66-49.29,150.87l-.07.05c-9,7-17.55,14.62-24.45,23.73-13.21,17.46-30.17,30.25-49,40.89-7,4-13.54,8.51-17.64,15.78a22.25,22.25,0,0,0-2.55,6.1c-.92,4.25-.05,7.64,3.8,10.4,7.38,5.24,15.9,7.78,24.13,11s16.83,5.4,23.75,10.81a303.75,303.75,0,0,1,33.8,30.58c5.34,5.65,5.62,12,1.78,18.52-1.37,2.33-3.83,2.3-6,1.62-3.18-1-6.12-1.66-9.34.07-1.73.93-3.79.27-5.49-.85-5.39-3.55-11.5-4.16-17.52-3-13,2.48-26.17,2-39.25,3.31a147,147,0,0,1-30.08.15c-17.61-1.93-31.18-10.38-41-25-9.26-13.73-18.66-27.3-29.26-40.1a93.62,93.62,0,0,1-21-47.72,32,32,0,0,1,2.29-17c8.08-19,15.47-38.41,25.79-56.43,1.39-2.43,3-4.75,4.55-7.08,2.78-4.14,2-6.12-2.87-6.69a111.3,111.3,0,0,0-30,.55A185.41,185.41,0,0,0,606,529.71c-9.33,3.1-19.11,3.68-28.9,3.74-5.34,0-6.53,1.47-5.62,6.79,4.79,28.37,2.8,56.91,1.44,85.35l-48.67-34.82C441.63,514.72,489.44,393,489.44,393q3.07-10.16,5.91-19.89S509,344,548.11,347.85c14.86,1.47,26.91,10.44,35,22.59C597.64,392.09,594.54,411,593,435.8c-.85,13.27.19,26.87,5.17,39.21,10.34,25.61,32.17,30.62,56.56,36.56,21.45,5.21,44.34,14,66.48,7.28,13.81-4.18,26.38-12.07,36.86-22.09a110.15,110.15,0,0,0,12.92-14.82c7.61-10.52,13.32-23,13-36-.58-21.82-17.49-41.25-32.43-55.67a120.68,120.68,0,0,0-29.55-20.67c-27.37-14-58.89-19.86-87.38-31.55-36-14.8-79.69-40.95-88.37-82-2.63-12.46-2.62-25.31-2-38,1-18.79,3.35-37.67,9.49-55.46,12.47-36.2,42.77-60.34,74.67-79.36,17.49,3.76,35,7.67,52.66,10.29,10.69,1.59,21.48,4.1,32.54,2.52,8.49-1.21,16.1-4.86,23.8-8.26Q757.28,79,777.15,70.1h0c33.38,3.29,66.82,19.37,91.65,41.47A175.57,175.57,0,0,1,902.2,152c9.63,16.06,16.64,33.66,19.6,51.47a78.68,78.68,0,0,1-1.45,32.74,69,69,0,0,1-20.11,33.94c-18.59,16.89-53,25.75-70.28,2.69-6.64-8.86-9.84-19.78-12.55-30.52C808.84,208.47,792.39,179.14,762,164Z" transform="translate(-64.38 -46.88)"/><path class="cls-2" d="M783.92,446c.34,13-5.36,25.46-13,36A110.15,110.15,0,0,1,758,496.76l-2.85-1.23a53.09,53.09,0,0,1-21.1-19.27c-18.13-29.15-12.91-74-12.13-106.63a120.68,120.68,0,0,1,29.55,20.67C766.43,404.71,783.34,424.14,783.92,446Z" transform="translate(-64.38 -46.88)"/><path class="cls-4" d="M682,719.78c1.23,1.91,2.91,4.27.86,6.47s-4.33.89-6.61.1c-2.48-.88-4.94-4.49-7.42-2-1.95,2,1.19,4.43,2,6.68,1.69,4.55-1.48,9.42-6.93,10-7.68.85-15.1,2.28-23.14.55-10.19-2.19-20.69,0-30.71,2.63-25.27,6.54-50.66,5.93-76.12,1.93-10.1-1.58-20.34-1.55-30.4-3.2-11.56-1.88-21.1-7.49-27.93-17.19-16.57-23.5-35.31-45.16-55.26-65.85-26.59-27.59-53.87-54.42-83.87-78.34-1.26-1-2.54-2-3.83-3-5.58-4.27-6.47-4.24-10.12,1.93a170.1,170.1,0,0,0-9.85,18.37c-11.59,26.72-33,41.3-59.95,49.1-18.92,5.45-38.37,8.66-57.4,13.64-7.9,2.07-15.68,4.42-22,9.95a20.85,20.85,0,0,0-2.81,2.8c-2.46,3.13-2,4.86,1.77,6.31a49.67,49.67,0,0,0,6.85,1.8c15.12,3.48,30.43,6.32,44.57,13.1a53.83,53.83,0,0,1,19.42,15.82c4.46,5.75,10.56,10,14.83,15.87a38.73,38.73,0,0,1,3.42,5.17c2.11,4.24.25,6.91-4.53,6.72-.89,0-1.76-.25-2.63-.37-5.47-.78-5.47-.78-6.09,4.79-.4,3.53-2.84,5-6.91,3.37s-6.74-1.45-7.5,3.72c-.47,3.18-3,3.31-5.5,2.36-11.87-4.43-24.21-5.1-36.71-4.68a27.41,27.41,0,0,0-8.74,1.29c-16.32,6-32.29,4.1-48.05-2a335.26,335.26,0,0,1-46.46-22C68.22,714,60.47,694.76,66.23,672.31c3-11.54,7.76-22.29,12.92-33,8.66-17.93,13.64-37.16,19.36-56.13a456.41,456.41,0,0,1,15.19-43.53A82.14,82.14,0,0,0,118.39,524a70.58,70.58,0,0,0,2-16.28c.4-4,.56-13,.62-19.75,0-1.25,0-2.41,0-3.46,0-4.65,0-7.08,0-9.42,0-3.39-.05-7-.07-10.85,0-.89,0-1.87,0-2.94,0-1.77,0-3.43,0-5,0-4.57.11-9.33.34-18.19.33-8.18.64-13.65,1.34-24.93.69-6,1.76-15,3.58-24.55,1.82-6.93,4.42-18.08,8.15-23.75.58-.12.8-1.95.73-3.8a.9.9,0,0,0,0-.19,4.72,4.72,0,0,0-.14-1.45c-.22-1.65-.67-2.85-1.3-2.15-2.14-6.12-4.36-6.68-6.76-9.86q-9.47-12.49-4.28-27.2a170,170,0,0,1,18.18-36.45c20-30.62,41.67-59.93,66.27-87.08,20.54-22.66,43.29-42.84,67.44-61.44C291,122.47,309.4,113.38,328.57,106c0,0,56.56-12.89,56.56,39.26,0,27.12-13.75,53.77-26.76,76.86a319.11,319.11,0,0,1-40.77,56.76c-12.48,13.87-20.74,29.26-27.52,46.74-11.45,29.52-20.92,65.16-16.71,97.09.91,6.86,2.62,16.85,9.62,20.26,35.67,17.44,57.12-1.4,58.86-104.31.56-33.38,17.3-67.46,29.93-97.62,16.9-40.32,33.62-80.62,49.85-121.29,7.2-18.08,21.32-46.61,44.69-47.6l1.81-.08c11.73-.48,30.67-1.11,43.8-1.54l1.25,0,1.25,0,6.1-.19,1.43,0,1.25,0,1.07,0,2.29-.07s56,5.4-31.22,303q-2.86,9.73-5.91,19.89s-47.81,121.7,34.77,197.77l48.67,34.82c-.74,15.84-1.4,31.52.95,47.26.49,3.28,1.84,5.56,5.39,4.9,16.5-3,32.37.16,48,4.9,10.89,3.29,21.87,6.39,31.95,11.92,6.91,3.79,12.51,8.67,16.12,15.9C677,713.84,679.95,716.57,682,719.78Z" transform="translate(-64.38 -46.88)"/></g></svg>