<svg id="레이어_1" data-name="레이어 1" xmlns="http://www.w3.org/2000/svg" viewBox="0 0 1103.33 1027.68"><defs><style>.cls-1{fill:transparent;stroke:#fff;stroke-miterlimit:10;stroke-width:5px;}.cls-2{font-size:125.65px;font-family:ACaslonPro-Regular, Adobe Caslon Pro;}.cls-2,.cls-4{fill:#fff;}.cls-3{letter-spacing:-0.01em;}.cls-4{font-size:38.85px;font-family:AmericanTypewriter, American Typewriter;}</style></defs><title>logo final final typo edited</title><rect width="1103.33" height="1027.68"/><line class="cls-1" x1="593.03" y1="345.54" x2="592.5" y2="345.4"/><line class="cls-1" x1="630.34" y1="338.05" x2="630.34" y2="338.05"/><line class="cls-1" x1="620.27" y1="421.84" x2="620.03" y2="421.84"/><path class="cls-1" d="M409.46,373.4s4.26-9.1,16.47-7.89c4.64.46,8.4,3.26,10.94,7.05,4.52,6.76,3.55,12.67,3.06,20.4a27.92,27.92,0,0,0,1.61,12.24c3.23,8,10,9.56,17.66,11.41,6.7,1.63,13.84,4.37,20.75,2.27a29,29,0,0,0,11.51-6.9,34.39,34.39,0,0,0,4-4.63c2.38-3.28,4.16-7.18,4.05-11.23-.18-6.81-5.46-12.88-10.12-17.38a37.68,37.68,0,0,0-9.23-6.45c-8.54-4.36-18.39-6.2-27.28-9.85-11.24-4.62-24.88-12.78-27.59-25.61a45.87,45.87,0,0,1-.61-11.87,62.84,62.84,0,0,1,3-17.31,38.3,38.3,0,0,1,9.94-15c3.52-3.38,7.79-8.48,12.84-9.28,4.2-.67,9,1.51,13.14,2.36,4.57,1,9.32,1.75,14,1.08A28.43,28.43,0,0,0,485,284.3q6.21-2.74,12.42-5.52" transform="translate(50.35 14.75)"/><path class="cls-1" d="M292.56,399.54c0-1.48,0-3,.1-5.85.1-2.55.2-4.26.42-7.78.21-1.87.55-4.68,1.12-7.67.57-2.16,1.38-5.64,2.54-7.41.18,0,.25-.61.23-1.19" transform="translate(50.35 14.75)"/><path class="cls-1" d="M292.58,404.38c0-.81,0-1.66,0-2.55" transform="translate(50.35 14.75)"/><path class="cls-1" d="M291.77,420.5c.33-1.8.52-4.59.63-5.08.12-2.72.17-4.73.19-6.17" transform="translate(50.35 14.75)"/><line class="cls-1" x1="471.57" y1="458.08" x2="472.68" y2="458.86"/><line class="cls-1" x1="468.81" y1="456.1" x2="471.48" y2="458.01"/><path class="cls-1" d="M411.08,367.79l-1,3.44" transform="translate(50.35 14.75)"/><path class="cls-1" d="M412.59,362.41q-.4,1.44-.81,2.91" transform="translate(50.35 14.75)"/><path class="cls-1" d="M416.11,349.13c-.13.52-.26,1-.4,1.58" transform="translate(50.35 14.75)"/><path class="cls-1" d="M418.25,340.29l-.3,1.3" transform="translate(50.35 14.75)"/><path class="cls-1" d="M420.51,330l-.38,1.85" transform="translate(50.35 14.75)"/><path class="cls-1" d="M422,322.24q-.1.57-.21,1.14c-.07.39-.14.78-.21,1.16" transform="translate(50.35 14.75)"/><path class="cls-1" d="M422.82,317.27c-.06.38-.12.76-.18,1.15" transform="translate(50.35 14.75)"/><path class="cls-1" d="M423.18,314.88c0,.3-.09.6-.13.9" transform="translate(50.35 14.75)"/><path class="cls-1" d="M424.31,305.28q-.08,1-.19,2.06" transform="translate(50.35 14.75)"/><path class="cls-1" d="M424.51,302.68c0,.43-.06.86-.09,1.3" transform="translate(50.35 14.75)"/><path class="cls-1" d="M424.58,301.54c0,.31,0,.63-.06.95" transform="translate(50.35 14.75)"/><path class="cls-1" d="M424.73,297.38c0,.25,0,.5,0,.76,0,.68,0,1.37-.07,2.1" transform="translate(50.35 14.75)"/><path class="cls-1" d="M424.6,291.95c0,.72.09,1.47.11,2.27" transform="translate(50.35 14.75)"/><path class="cls-1" d="M424.39,289.64c0,.39.09.79.12,1.21" transform="translate(50.35 14.75)"/><path class="cls-1" d="M423.6,285.23c0,.14.07.29.11.44s.08.3.11.46" transform="translate(50.35 14.75)"/><path class="cls-1" d="M423.36,284.4c.07.23.14.47.21.71" transform="translate(50.35 14.75)"/><path class="cls-1" d="M422.92,283.12l.09.25c0,.12.09.25.14.39" transform="translate(50.35 14.75)"/><path class="cls-1" d="M422.55,282.25l.13.29" transform="translate(50.35 14.75)"/><path class="cls-1" d="M420.08,279.14a5.72,5.72,0,0,1,1.76,1.83l.13.21" transform="translate(50.35 14.75)"/><path class="cls-1" d="M418.2,278.82h1a2.2,2.2,0,0,1,.83.33" transform="translate(50.35 14.75)"/><path class="cls-1" d="M415.68,278.9l1.64-.05h.84" transform="translate(50.35 14.75)"/><path class="cls-1" d="M297,369.58c0-.15,0-.31,0-.45-.07-.51-.21-.89-.41-.68a30.18,30.18,0,0,1-2.11-3.08" transform="translate(50.35 14.75)"/><path class="cls-1" d="M401,279.41c4.56-.23,9.11-.35,13.68-.48" transform="translate(50.35 14.75)"/><path class="cls-1" d="M517.58,429.5a40.35,40.35,0,0,0-7.63,7.41,48.42,48.42,0,0,1-15.31,12.77,13.52,13.52,0,0,0-5.51,4.93,7,7,0,0,0-.8,1.91,2.84,2.84,0,0,0,1.19,3.25c2.3,1.64,5,2.43,7.53,3.44s5.26,1.69,7.41,3.37A94.84,94.84,0,0,1,515,476.12a4.45,4.45,0,0,1,.56,5.78,1.46,1.46,0,0,1-1.86.51,3.44,3.44,0,0,0-2.92,0,1.69,1.69,0,0,1-1.71-.27,7.23,7.23,0,0,0-5.47-.94c-4.06.78-8.17.64-12.25,1a45.89,45.89,0,0,1-9.39,0,17,17,0,0,1-12.8-7.79c-2.89-4.29-5.82-8.52-9.14-12.52a29.23,29.23,0,0,1-6.55-14.9,10,10,0,0,1,.72-5.29c2.52-5.94,4.83-12,8.05-17.62.43-.76.93-1.48,1.42-2.21.87-1.29.62-1.91-.9-2.09a34.75,34.75,0,0,0-9.38.17,57.89,57.89,0,0,0-9.41,2.24,29,29,0,0,1-9,1.17c-1.67,0-2,.46-1.76,2.12,1.49,8.86.87,17.77.45,26.65A75.47,75.47,0,0,0,434,467c.15,1,.57,1.73,1.68,1.53,5.15-.95,10.11.05,15,1.53a51,51,0,0,1,10,3.72,11.46,11.46,0,0,1,5,5,31.9,31.9,0,0,0,2.09,2.91c.39.6.91,1.33.27,2s-1.35.28-2.06,0-1.54-1.4-2.32-.62c-.61.61.37,1.38.63,2.09a2.38,2.38,0,0,1-2.16,3.13c-2.4.27-4.72.71-7.23.17-3.18-.69-6.46,0-9.59.82-7.89,2-15.82,1.85-23.77.6-3.15-.49-6.35-.48-9.49-1a12.78,12.78,0,0,1-8.72-5.37A175.31,175.31,0,0,0,386.06,463a274,274,0,0,0-26.19-24.46l-1.19-.94c-1.74-1.33-2-1.32-3.16.6a53.11,53.11,0,0,0-3.08,5.73c-3.62,8.34-10.29,12.9-18.72,15.33-5.91,1.7-12,2.7-17.92,4.26a16.23,16.23,0,0,0-6.87,3.11,6.51,6.51,0,0,0-.88.87c-.77,1-.63,1.52.55,2a15.51,15.51,0,0,0,2.14.56c4.72,1.09,9.5,2,13.92,4.09a16.81,16.81,0,0,1,6.06,4.94c1.39,1.79,3.3,3.11,4.63,5a12.09,12.09,0,0,1,1.07,1.61c.66,1.32.08,2.16-1.41,2.1-.28,0-.55-.08-.82-.12-1.71-.24-1.71-.24-1.9,1.49-.12,1.1-.89,1.55-2.16,1.05s-2.1-.45-2.34,1.16c-.15,1-.93,1-1.72.74a29.39,29.39,0,0,0-11.46-1.46,8.56,8.56,0,0,0-2.73.4c-5.1,1.89-10.08,1.28-15-.63a104.67,104.67,0,0,1-14.51-6.87c-6.27-3.62-8.69-9.63-6.89-16.64a55.6,55.6,0,0,1,4-10.3c2.7-5.6,4.26-11.6,6-17.53a142.5,142.5,0,0,1,4.74-13.59,25.88,25.88,0,0,0,1.47-4.89,22.06,22.06,0,0,0,.63-5.08c.13-1.23.18-4.06.19-6.17,0-.4,0-.76,0-1.08,0-1.16,0-2.42,0-3.79,0-.62,0-1.37,0-2.55,0-.3,0-.6,0-.9,0-.49,0-.94,0-1.39,0-2.66,0-4.51.1-5.85a74.38,74.38,0,0,1,.42-7.78,59.43,59.43,0,0,1,1.12-7.67c.57-4,1.38-6,2.54-7.41a6,6,0,0,0,.23-1.19v-.06a1.41,1.41,0,0,0-.45-1.13c-.67-1.91-1.36-2.09-2.11-3.08a8.57,8.57,0,0,1-1.34-8.49,53.09,53.09,0,0,1,5.67-11.38,215.93,215.93,0,0,1,20.69-27.19,159.79,159.79,0,0,1,21.05-19.18A65.93,65.93,0,0,1,357.39,290l.61-.23" transform="translate(50.35 14.75)"/><path class="cls-1" d="M497.45,278.79l8.7-3.9a29.94,29.94,0,0,1,9.92-2.37c6.44-.53,12.87-1.2,19.35-.91a74.86,74.86,0,0,1,25.23,5.2c3.28,1.35,6.69,2.44,9.77,4.25,4.13,2.42,7.61,5.67,11.12,8.88,4.13,3.78,8.35,7.42,13.54,9.74a77.83,77.83,0,0,0,11.29,3.76,39.14,39.14,0,0,1,15.71,8.17c3.37,2.93,3.43,2.86,7.19.68,4.57-2.65,8.29-1.54,10.62,3.2a22.53,22.53,0,0,0,2.64,4.53,5.16,5.16,0,0,0,6.27,1.84c1.13-.39,2.2-1,3.32-1.4,5.43-2.09,9.71.6,10.12,6.4.12,1.71.41,3.39.64,5.08a4.61,4.61,0,0,0,1.94,3.23c6,4.27,10,10.18,13,16.79a7.73,7.73,0,0,1,.42,4.75,25.8,25.8,0,0,0,8.38,25.94,44.52,44.52,0,0,0,8.32,6.18,4.06,4.06,0,0,1,2.1,3.6c.47,7-3.58,10-8.19,11.85a22.86,22.86,0,0,1-7.71,1.5,9.05,9.05,0,0,1-6.5-2.29,10.41,10.41,0,0,0-3.72-2.08c-1.89-.62-3.78-1.21-5.69-1.76-2.12-.6-4.22-.06-6.31.24-.83.12-.71.69-.43,1.26a16.41,16.41,0,0,0,2.87,4.06,69.06,69.06,0,0,0,9.94,8.59,4,4,0,0,1,.16,5.77c-.76.67-1.48,1.39-2.21,2.09a8.14,8.14,0,0,1-7.11,2.27,22.79,22.79,0,0,1-9-3.28c-4.81-3-10.16-4.82-15.32-7.07-7.86-3.44-15.68-7-23.52-10.51a91.84,91.84,0,0,0-26.62-7.25,27.87,27.87,0,0,0-7.71-.37c-1.82.29-2.15.74-1.58,2.59.93,3,2,6,2.78,9,2.55,9.47,6.15,18.58,9.24,27.86,1.42,4.27,4.6,7.15,7.91,9.94,6.81,5.75,13.07,12,17.17,20.06a8.72,8.72,0,0,0,3.89,3.44A35,35,0,0,0,628,471.8c5.81,1.43,11.07,4.08,16.23,7,2.82,1.58,5.62,3.19,8.31,5a11.39,11.39,0,0,1,1.52,1.19c.38.36,1,.75.65,1.38s-.9.57-1.46.62a12.21,12.21,0,0,1-3-.51c-1-.16-1.94-.3-2.21,1.13-.16.88-1,1-1.77,1a12.77,12.77,0,0,1-1.74-.44c-.56-.14-1.24-.64-1.67-.09s.24,1.07.54,1.55.65.91.89,1.4a1.73,1.73,0,0,1-.1,2c-.45.54-1,.18-1.55.06a13.4,13.4,0,0,1-3.22-1.25,9,9,0,0,0-6.19-.75,19.75,19.75,0,0,1-4,.42,165.05,165.05,0,0,0-19.63.7,24.49,24.49,0,0,1-9.17-1.09,80.42,80.42,0,0,1-32.3-17.86c-2.57-2.29-5.55-4.12-8.11-6.47a103.41,103.41,0,0,1-12.27-13.88c-3.74-4.93-7.25-10.06-11.92-14.18-3.39-3-6.66-6.11-10.09-9-3-2.57-5.06-2.5-8.17-.09" transform="translate(50.35 14.75)"/><path class="cls-1" d="M419.21,278.79H420" transform="translate(50.35 14.75)"/><path class="cls-1" d="M357.39,290S375,286,375,302.26c0,8.47-4.29,16.79-8.36,24A99.63,99.63,0,0,1,354,344a45.76,45.76,0,0,0-8.59,14.59c-3.58,9.22-6.53,20.34-5.22,30.31.28,2.14.82,5.26,3,6.33,11.14,5.44,17.83-.44,18.38-32.57.18-10.42,5.4-21.06,9.35-30.48,5.28-12.59,10.5-25.17,15.56-37.87,2.25-5.64,6.66-14.55,14-14.86l.57,0c3.66-.15,9.58-.35,13.68-.48h1l1.81,0,.67,0h.6a2.75,2.75,0,0,1,.93.15,2.54,2.54,0,0,1,.35.16l0,0a5.36,5.36,0,0,1,1.76,1.83l.06.09.07.12a10.92,10.92,0,0,1,.57,1.06v0l.13.29c.09.19.16.38.24.58l.09.25.14.39c.07.21.14.42.21.64s.14.47.21.71c0,0,0,.08,0,.12l.11.44.11.46c.14.63.26,1.25.36,1.88s.16,1.08.22,1.62.09.81.12,1.21.06.73.09,1.09c0,.75.09,1.51.11,2.27q0,1.58,0,3.17v.76c0,.7,0,1.4-.07,2.1,0,.43,0,.87-.06,1.3s0,.63-.06.95v.19c0,.43-.06.87-.09,1.3s-.07.87-.11,1.3q-.09,1-.19,2.06c0,.18,0,.36-.06.54-.21,2-.45,3.94-.72,5.9-.05.36-.1.73-.16,1.09s-.09.6-.13.9c-.07.5-.15,1-.23,1.49s-.12.77-.18,1.15q-.16,1-.33,2c-.1.6-.21,1.2-.31,1.8q-.1.57-.21,1.14c-.07.39-.14.78-.21,1.16q-.31,1.67-.64,3.34c-.14.69-.27,1.38-.42,2.08s-.25,1.23-.38,1.85q-.46,2.18-.94,4.36t-.94,4.12c-.1.43-.2.87-.3,1.3q-.44,1.88-.9,3.75t-.94,3.79c-.13.52-.26,1-.4,1.58q-.6,2.36-1.23,4.73-.93,3.49-1.89,7c-.27,1-.54,1.94-.81,2.91l-.33,1.19c-.12.42-.24.85-.36,1.28-.32,1.15-.66,2.29-1,3.44l-.63,2.17q-.89,3-1.85,6.21s-14.93,38,10.86,61.75a25.05,25.05,0,0,0,2.66,1.91l.08.06h0a8.18,8.18,0,0,0,1.1.79l0,0,1.16.84,2.55,1.82,7.28,5.21.3.21" transform="translate(50.35 14.75)"/><path class="cls-1" d="M497.44,278.79h0c10.42,1,20.86,6,28.61,12.95a54.81,54.81,0,0,1,10.42,12.62,46.48,46.48,0,0,1,6.12,16.07,24.56,24.56,0,0,1-.45,10.22,21.55,21.55,0,0,1-6.28,10.6c-5.8,5.27-16.54,8-21.94.84-2.07-2.77-3.07-6.18-3.92-9.53-2.68-10.57-7.81-19.72-17.29-24.46a30.21,30.21,0,0,0-5.65-2.14,34,34,0,0,0-22.43,1.93c-3.7,1.73-7,4.82-7.91,8.8-1.77,7.59,3.35,16,9.08,20.47A52.94,52.94,0,0,0,483,346a72.36,72.36,0,0,0,7.21,1.58A61.32,61.32,0,0,1,517,359.76a49.9,49.9,0,0,1,14.12,17.81,42.93,42.93,0,0,1,1.9,4.81c8.6,26.37-14.58,46.41-15.39,47.1l0,0" transform="translate(50.35 14.75)"/><path class="cls-1" d="M595.07,299.68c8.72,3.93,19.66,17.51,8.6,25.38a21.11,21.11,0,0,1-9.44,3.23c-4.59.64-9.56-1.88-14.24-5-4-2.69-7.86-5.82-11.07-7.79-8.89-5.44-18.56-10.47-29.18-11l-3.26-.16h-.24" transform="translate(50.35 14.75)"/><path class="cls-1" d="M542.69,330.79c9.23,5.32,18.6,10.42,28.22,15,.87.42,1.83.82,2.86,1.24,11,4.39,29.56,9.08,22.9,24.6a11.57,11.57,0,0,1-4.26,5.22c-5.57,3.57-12.82.69-18.85-2l-2.3-1a263.63,263.63,0,0,0-25.8-9.73c-8.47-2.69-19.8-8.1-28.49-4.32l-.36.16" transform="translate(50.35 14.75)"/><path class="cls-1" d="M533,382.38s22.66,15.12,36.7,24.71" transform="translate(50.35 14.75)"/><path class="cls-1" d="M492.72,308.09h0c-.2.4-11.51,23-9.74,37.89" transform="translate(50.35 14.75)"/><path class="cls-1" d="M480.2,372.3c-.24,10.18-1.88,24.19,3.79,33.29a16.57,16.57,0,0,0,6.59,6l.89.39" transform="translate(50.35 14.75)"/><path class="cls-1" d="M580,323.3s-5.57,15.38-6.24,23.74" transform="translate(50.35 14.75)"/><path class="cls-1" d="M569.83,406.06c0,.34.06.69.1,1,0,0-.75,31.94-1.77,66.07" transform="translate(50.35 14.75)"/><path class="cls-1" d="M569.73,405c0,.35.06.7.1,1" transform="translate(50.35 14.75)"/><path class="cls-1" d="M571.26,373.81a132.55,132.55,0,0,0-1.53,31.2" transform="translate(50.35 14.75)"/><path class="cls-1" d="M615,368.72a33.55,33.55,0,0,0,23.18.27c1.9-.69,3.87-1.69,4.73-3.52a8.34,8.34,0,0,0,.62-2.92,78.08,78.08,0,0,0-.48-17.14c-.63-4.51-2-9.43-5.79-11.89-2.66-1.7-6-1.87-9.17-1.77a26.76,26.76,0,0,0-7.9,1.2,14.57,14.57,0,0,0-1.73.73c-5.8,2.89-8.8,9.51-9.92,15.89C607.08,358,606.29,365.4,615,368.72Z" transform="translate(50.35 14.75)"/><text class="cls-2" transform="translate(330.21 619.78) scale(1.22 1)"><tspan class="cls-3">K</tspan><tspan x="88.2" y="0">SEA</tspan></text><text class="cls-4" transform="translate(542.68 163.36) rotate(3.07) scale(1.11 1)">K</text><text class="cls-4" transform="translate(575.05 165.26) rotate(8.21) scale(1.11 1)">o</text><text class="cls-4" transform="translate(597.9 168.58) rotate(12.37) scale(1.11 1)">r</text><text class="cls-4" transform="matrix(1.06, 0.31, -0.28, 0.96, 618.17, 172.98)">e</text><text class="cls-4" transform="translate(639.55 179.25) rotate(20.86) scale(1.11 1)">a</text><text class="cls-4" transform="matrix(1, 0.48, -0.43, 0.9, 661.82, 187.64)">n</text><text class="cls-4" transform="matrix(0.97, 0.54, -0.49, 0.87, 686.09, 199.59)"> </text><text class="cls-4" transform="matrix(0.93, 0.61, -0.55, 0.84, 695.33, 204.32)">A</text><text class="cls-4" transform="translate(721.8 221.33) rotate(39.87) scale(1.11 1)">m</text><text class="cls-4" transform="matrix(0.78, 0.79, -0.72, 0.7, 751.77, 246.89)">e</text><text class="cls-4" transform="translate(767.37 262.87) rotate(49.7) scale(1.11 1)">r</text><text class="cls-4" transform="matrix(0.67, 0.89, -0.8, 0.6, 780.76, 278.81)">i</text><text class="cls-4" transform="translate(788.71 289.1) rotate(56.15) scale(1.11 1)">c</text><text class="cls-4" transform="translate(800.75 306.93) rotate(60.44) scale(1.11 1)">a</text><text class="cls-4" transform="translate(812.57 327.6) rotate(65.25) scale(1.11 1)">n</text><text class="cls-4" transform="translate(823.68 352.29) rotate(68.82) scale(1.11 1)"> </text><text class="cls-4" transform="matrix(0.34, 1.06, -0.95, 0.3, 827.68, 361.91)">S</text><text class="cls-4" transform="translate(835.56 386.86) rotate(76.85) scale(1.11 1)">c</text><text class="cls-4" transform="matrix(0.19, 1.09, -0.99, 0.17, 840.37, 407.95)">i</text><text class="cls-4" transform="translate(842.75 420.75) rotate(83.5) scale(1.11 1)">e</text><text class="cls-4" transform="translate(845.38 442.87) rotate(88.11) scale(1.11 1)">n</text><text class="cls-4" transform="translate(846.11 469.85) rotate(92.18) scale(1.11 1)">t</text><text class="cls-4" transform="matrix(-0.1, 1.11, -1, -0.09, 845.42, 486.8)">i</text><text class="cls-4" transform="translate(844.41 499.77) rotate(98.19) scale(1.11 1)">s</text><text class="cls-4" transform="translate(841.4 520.38) rotate(101.76) scale(1.11 1)">t</text><text class="cls-4" transform="matrix(-0.29, 1.07, -0.96, -0.26, 838.04, 536.87)">s</text><text class="cls-4" transform="translate(832.39 556.98) rotate(108.33) scale(1.11 1)"> </text><text class="cls-4" transform="translate(829.3 566.96) rotate(111.61) scale(1.11 1)">a</text><text class="cls-4" transform="translate(820.63 589.09) rotate(116.42) scale(1.11 1)">n</text><text class="cls-4" transform="matrix(-0.58, 0.95, -0.85, -0.52, 808.63, 613.21)">d</text><text class="cls-4" transform="matrix(-0.63, 0.91, -0.82, -0.57, 795.17, 634.88)"> </text><text class="cls-4" transform="translate(789.5 643.58) rotate(128.44) scale(1.11 1)">E</text><text class="cls-4" transform="translate(771.79 665.87) rotate(133.64) scale(1.11 1)">n</text><text class="cls-4" transform="translate(753.14 685.33) rotate(138.34) scale(1.11 1)">g</text><text class="cls-4" transform="translate(735.75 700.62) rotate(141.74) scale(1.11 1)">i</text><text class="cls-4" transform="translate(725.74 708.83) rotate(145.51) scale(1.11 1)">n</text><text class="cls-4" transform="matrix(-0.96, 0.55, -0.5, -0.87, 703.46, 724.05)">e</text><text class="cls-4" transform="matrix(-1, 0.48, -0.43, -0.9, 684.12, 735.16)">e</text><text class="cls-4" transform="translate(663.99 744.79) rotate(158.48) scale(1.11 1)">r</text><text class="cls-4" transform="translate(644.71 752.42) rotate(162.43) scale(1.11 1)">s</text><text class="cls-4" transform="translate(624.76 758.6) rotate(165.42) scale(1.11 1)"> </text><text class="cls-4" transform="translate(614.83 761.58) rotate(169.42) scale(1.11 1)">A</text><text class="cls-4" transform="translate(583.7 767.18) rotate(174.37) scale(1.11 1)">s</text><text class="cls-4" transform="matrix(-1.11, 0.03, -0.03, -1, 563.04, 769.23)">s</text><text class="cls-4" transform="matrix(-1.11, -0.05, 0.04, -1, 542.27, 769.91)">o</text><text class="cls-4" transform="translate(519.21 768.96) rotate(-173.48) scale(1.11 1)">c</text><text class="cls-4" transform="translate(497.72 766.39) rotate(-170.2) scale(1.11 1)">i</text><text class="cls-4" transform="matrix(-1.08, -0.26, 0.23, -0.97, 484.91, 764.36)">a</text><text class="cls-4" transform="matrix(-1.06, -0.33, 0.3, -0.96, 461.67, 758.76)">t</text><text class="cls-4" transform="translate(445.51 753.72) rotate(-159.96) scale(1.11 1)">i</text><text class="cls-4" transform="translate(433.25 749.42) rotate(-156.51) scale(1.11 1)">o</text><text class="cls-4" transform="matrix(-0.98, -0.52, 0.47, -0.88, 412.08, 740.33)">n</text><text class="cls-4" transform="matrix(-0.94, -0.58, 0.53, -0.85, 388.35, 727.32)"> </text><text class="cls-4" transform="translate(379.38 721.99) rotate(-144.98) scale(1.11 1)">a</text><text class="cls-4" transform="translate(359.86 708.19) rotate(-141.14) scale(1.11 1)">t</text><text class="cls-4" transform="translate(346.7 697.5) rotate(-138.56) scale(1.11 1)"> </text><text class="cls-4" transform="matrix(-0.78, -0.79, 0.71, -0.7, 338.7, 690.89)">U</text><text class="cls-4" transform="matrix(-0.7, -0.86, 0.77, -0.63, 317.59, 669.54)">C</text><text class="cls-4" transform="matrix(-0.65, -0.9, 0.81, -0.59, 300.59, 648.46)"> </text><text class="cls-4" transform="translate(294.25 640.24) rotate(-122.12) scale(1.11 1)">B</text><text class="cls-4" transform="translate(278.77 615.35) rotate(-117.24) scale(1.11 1)">e</text><text class="cls-4" transform="translate(268.58 595.52) rotate(-113.16) scale(1.11 1)">r</text><text class="cls-4" transform="translate(260.32 576.53) rotate(-108.69) scale(1.11 1)">k</text><text class="cls-4" transform="matrix(-0.27, -1.08, 0.97, -0.25, 252.17, 552.37)">e</text><text class="cls-4" transform="translate(246.8 530.62) rotate(-100.84) scale(1.11 1)">l</text><text class="cls-4" transform="matrix(-0.14, -1.1, 0.99, -0.13, 244.22, 517.93)">e</text><text class="cls-4" transform="translate(241.23 495.83) rotate(-93) scale(1.11 1)">y</text></svg>